<svg xmlns="http://www.w3.org/2000/svg" viewBox="0 0 155 38">
  <path d="M41 32.5s.1 0 0 0c0-.1.1-.1.1-.1v-.1-.1-.1c-1-9.6-5.8-15.1-9.8-18.2 1-3.4 1.6-7 1.8-10.7l.3-2.2-1.5 1.6C17.5 18 1.6 31.4 1.4 31.5l-.1.1v1.3l.1.1s.1 0 .1.1H41l.1-.1c-.1-.4-.1-.4-.1-.5zm-1.5-1.2h-17c1.9-2.3 5.8-7.7 8.4-15.9 3.5 2.8 7.5 7.8 8.6 15.9zM25.1 12.1c1.2.5 2.8 1.2 4.5 2.4-1.7 5.7-4.1 10-5.9 12.6-.9 1.3-1.7 2.3-2.3 3.1 0-3.6.4-11.4 3.7-18.1zM20 31.3H4c3.1-2.7 10.3-9 18.4-16.9-2.6 7.2-2.6 14.5-2.4 16.9zm10-18.4c-1.5-1-2.8-1.6-3.9-2.1 1.8-1.8 3.6-3.6 5.4-5.5-.3 2.6-.8 5.1-1.5 7.6zM47.4 30.4c.3.1.6.3 1 .4.4.1.8.3 1.3.3.5.1 1 .1 1.6.1 1 0 1.8-.2 2.2-.5.4-.3.7-.7.7-1.3 0-.3-.1-.5-.2-.7-.1-.2-.3-.4-.4-.5-.2-.1-.4-.2-.7-.3-.3-.1-.6-.2-1-.2l-2-.4c-.5-.1-1-.2-1.5-.4s-.9-.4-1.2-.7c-.4-.3-.6-.6-.9-1-.2-.4-.3-.9-.3-1.4 0-.5.1-1 .3-1.4.2-.5.5-.8.9-1.2.4-.3.9-.6 1.5-.8.6-.2 1.4-.3 2.3-.3.6 0 1.2 0 1.7.1s.9.2 1.2.3c.3.1.6.2.8.3.2.1.4.2.4.3.2.1.3.3.5.4.1.2.2.3.2.5 0 .3-.1.5-.3.8-.2.2-.3.4-.5.5-.1-.1-.3-.3-.5-.4-.2-.1-.5-.3-.9-.4-.3-.1-.7-.2-1.2-.3-.5-.1-.9-.1-1.5-.1-.5 0-1 0-1.4.1-.4.1-.7.2-.9.4-.2.1-.4.3-.5.5-.1.2-.1.4-.1.7 0 .5.2.8.5 1.1.4.3.9.5 1.8.6l2 .4c1.3.2 2.3.6 2.9 1.2.7.5 1 1.3 1 2.4 0 .6-.1 1.1-.3 1.6-.2.5-.6.9-1 1.2-.4.3-1 .6-1.6.8-.7.2-1.4.3-2.3.3-.7 0-1.4-.1-2-.2-.6-.1-1.1-.3-1.6-.4-.5-.2-.9-.3-1.2-.5-.3-.2-.5-.3-.7-.4l.9-1.7c.6 0 .8.1 1 .2zM58 26.6c.2-.6.6-1.2 1-1.6.4-.4 1-.8 1.6-1 .6-.2 1.3-.3 2-.3s1.3.1 1.9.4c.6.2 1.1.6 1.5 1 .4.4.8.9 1 1.5.2.6.4 1.2.4 1.9s-.1 1.3-.3 1.9c-.2.6-.6 1.1-1 1.5-.4.4-.9.7-1.5 1-.6.2-1.2.3-1.8.3-.7 0-1.3-.1-1.8-.4-.5-.3-.9-.6-1.2-1v4.7h-2v-7.7c-.1-.9 0-1.6.2-2.2zm5.6 4.5c.3-.1.6-.4.9-.6l.6-.9c.1-.4.2-.7.2-1.2 0-.4-.1-.8-.2-1.1-.1-.4-.3-.7-.6-.9-.2-.3-.5-.5-.9-.6-.3-.1-.7-.2-1.1-.2-.4 0-.8.1-1.1.2-.3.1-.6.3-.9.6l-.6.9c-.1.4-.2.7-.2 1.2 0 .4.1.8.2 1.2.1.4.3.7.6.9.2.3.5.5.9.6.3.1.7.2 1.1.2.4-.1.7-.2 1.1-.3zM76.2 32.5c-.2.1-.5.2-.8.3-.3.1-.7.2-1.1.3-.4.1-.8.1-1.3.1-.7 0-1.3-.1-1.9-.3-.6-.2-1.1-.5-1.5-.9-.4-.4-.8-.9-1-1.5-.3-.6-.4-1.2-.4-2 0-.7.1-1.4.4-2 .2-.6.6-1.1 1-1.5.4-.4 1-.8 1.5-1 .6-.2 1.2-.3 1.9-.3.6 0 1.2.1 1.6.2.5.2.9.4 1.2.6.3.3.6.6.7.9.2.4.3.7.3 1.1 0 .4-.1.8-.2 1.1-.2.3-.4.6-.8.9-.4.2-.9.4-1.6.6-.7.1-1.5.2-2.5.2h-1.4c.1.6.4 1.1.9 1.5.5.4 1.2.6 2.1.6.3 0 .6 0 .9-.1.3 0 .5-.1.7-.2.2-.1.4-.1.5-.2l.3-.2.8 1.4c.1.2-.1.3-.3.4zm-5-4.5h.8c.7 0 1.2 0 1.6-.1.4-.1.7-.2.9-.3.2-.1.4-.3.4-.4.1-.2.1-.3.1-.5 0-.5-.2-.8-.5-1-.4-.2-.8-.3-1.4-.3-.4 0-.8.1-1.2.2-.3.2-.6.4-.8.6-.2.3-.4.6-.5.9-.1.3-.2.7-.2 1 .2-.1.5-.1.8-.1zM49.2 13l-.7-1.8-.7-1.9-.6-1.8-.5-1.5c-.1-.4-.3-.7-.3-.9L46.1 4c-.1-.3-.2-.6-.2-.9 0-.3.1-.6.3-.7.2-.2.5-.3.8-.3.3 0 .5 0 .7.1.1.1.3.2.3.2.1.3.2.7.3 1.2l.5 1.5.5 1.7.6 1.8.6 1.7c.2.6.4 1.1.5 1.5l.7-2.4.7-2.4.6-2.2.4-1.5c.1-.3.2-.6.4-.8.2-.2.5-.3.9-.3.3 0 .5 0 .7.1.2.1.4.1.4.2l.5 2.1.7 2.3.7 2.5.7 2.4.8-2.3.7-2.3.6-2.1.5-1.7c.1-.4.3-.7.5-.9.2-.2.5-.3.9-.3.3 0 .6.1.8.2.2.1.3.2.4.2-.2.8-.5 1.7-.8 2.6l-1 3-1.1 3.2-1.2 3.1h-2.4c-.1-.2-.2-.5-.3-.9-.1-.4-.2-.8-.4-1.3l-.4-1.5c-.2-.6-.3-1.1-.5-1.7l-.4-1.7-.4-1.5c-.1.4-.2.9-.4 1.5L53.9 9l-.5 1.7-.5 1.6-.4 1.3c-.1.4-.2.7-.3.9h-2.4l-.6-1.5zM69.7 5.6c.6.2 1.1.6 1.6 1 .4.4.8.9 1 1.5.3.6.4 1.2.4 1.9s-.1 1.3-.4 1.9c-.3.6-.6 1.1-1 1.5-.4.4-1 .8-1.6 1-.6.2-1.3.4-1.9.4-.7 0-1.3-.1-1.9-.4-.6-.2-1.1-.6-1.6-1-.4-.4-.8-.9-1-1.5-.3-.6-.4-1.2-.4-1.9s.1-1.3.4-1.9c.3-.6.6-1.1 1-1.5.4-.4 1-.8 1.6-1 .6-.2 1.3-.4 1.9-.4.6 0 1.3.1 1.9.4zm-.8 7.1c.3-.1.6-.4.9-.6l.6-.9c.1-.4.2-.7.2-1.2 0-.4-.1-.8-.2-1.2-.1-.4-.3-.7-.6-.9-.2-.3-.5-.5-.9-.6-.4-.2-.8-.3-1.2-.3-.4 0-.8.1-1.1.2-.3.1-.6.4-.9.6l-.6.9c-.1.5-.2.8-.2 1.3 0 .4.1.8.2 1.2.1.4.3.7.6.9.2.3.5.5.9.6.3.1.7.2 1.1.2.4 0 .8-.1 1.2-.2zM74.8 6.1c.7-.6 1.6-.9 2.8-.9.8 0 1.4.1 1.8.3.5.2.7.5.7 1 0 .2-.1.4-.2.6-.1.2-.2.3-.3.4-.2-.1-.5-.2-.8-.3-.3-.1-.6-.1-1-.1-1.4 0-2.1.7-2.1 2.2v5.2h-2V8.7c.1-1.1.4-2 1.1-2.6zM85.4 32.5c-.2.1-.4.2-.7.3-.3.1-.6.2-.9.2-.3.1-.7.1-1.2.1-.7 0-1.3-.1-1.9-.3-.6-.2-1.1-.5-1.5-.9-.4-.4-.8-.9-1-1.5-.3-.6-.4-1.3-.4-2 0-.8.1-1.4.4-2 .3-.6.6-1.1 1-1.5.4-.4 1-.7 1.6-.9.6-.2 1.3-.3 1.9-.3.6 0 1.1 0 1.5.1.4.1.7.2 1 .4.3.1.4.3.6.5.1.2.2.4.2.5 0 .2-.1.5-.2.7-.2.2-.3.4-.5.5-.2-.2-.5-.4-.9-.6-.4-.2-.9-.3-1.5-.3-.4 0-.8.1-1.1.2-.4.1-.7.3-.9.5-.3.2-.5.5-.6.9-.1.4-.2.8-.2 1.3s.1 1 .2 1.3c.2.4.4.7.6.9.3.2.6.4 1 .5.4.1.7.2 1.2.2.6 0 1.1-.1 1.4-.2.4-.2.6-.3.7-.4l.9 1.5c-.3.1-.5.2-.7.3zM89.1 20.2c.2.2.4.5.4.9 0 .3-.1.6-.4.9-.2.2-.5.4-.9.4s-.6-.1-.9-.4c-.2-.2-.4-.5-.4-.9 0-.3.1-.6.4-.9.2-.2.5-.4.9-.4s.7.2.9.4zm-1.6 3.9c.2-.1.5-.2.8-.2.2 0 .4 0 .6.1.2.1.3.1.4.1v8.8h-2v-8c-.1-.4 0-.7.2-.8zM98.2 32.9c-.3 0-.6.1-.9.1-.3 0-.7.1-1.2.1h-1.3c-.9 0-1.7-.1-2.3-.2-.6-.2-1.1-.4-1.4-.6-.3-.3-.6-.6-.7-.9-.1-.4-.2-.7-.2-1.1 0-.5.1-.9.2-1.3s.4-.7.7-.9c.3-.3.8-.4 1.3-.6.5-.1 1.2-.2 2-.2h1.3c.4 0 .7.1.9.1 0-.4-.1-.8-.2-1-.1-.3-.3-.5-.6-.6-.2-.2-.5-.3-.9-.3-.3-.1-.7-.1-1.1-.1-.7 0-1.2.1-1.6.2-.4.2-.7.3-.8.4l-.3-.3c-.1-.2-.2-.4-.2-.6 0-.2 0-.3.1-.5s.2-.3.5-.4c.2-.1.5-.2.9-.3.4-.1.9-.1 1.5-.1.7 0 1.3.1 1.9.2.6.1 1.1.4 1.5.7.4.3.7.7 1 1.2.2.5.3 1.1.3 1.8v5.4c0-.2-.1-.2-.4-.2zm-2.1-4.2c-.3 0-.8-.1-1.5-.1-.8 0-1.4.1-1.8.4-.4.2-.6.6-.6 1.2 0 .2 0 .4.1.6.1.2.2.3.4.5.2.1.5.2.8.3.3.1.7.1 1.2.1s1 0 1.3-.1c.3 0 .5-.1.6-.1v-2.6c0-.1-.2-.1-.5-.2zM100.4 19.9c.2-.2.5-.2.8-.2.2 0 .4 0 .6.1.2.1.3.1.4.1v13h-2V20.6c-.1-.3 0-.6.2-.7zM109.7 20.6h6.9c.7 0 1.1.3 1.1 1 0 .2 0 .4-.1.6-.1.2-.1.3-.2.4h-6.8v3.1h5.8c.7 0 1.1.3 1.1 1 0 .2 0 .4-.1.6-.1.2-.1.3-.2.4h-6.6v3.4h7v2h-9.2V21.8c-.1-.8.4-1.2 1.3-1.2zM120.3 29.9c-.5-.9-.9-1.7-1.2-2.4-.3-.7-.6-1.3-.8-1.8-.2-.5-.3-.8-.3-.9 0-.3.1-.5.3-.6.2-.2.4-.3.8-.3.3 0 .5 0 .6.1.2 0 .3.1.3.1.2.6.5 1.3.8 2l.8 1.9.8 1.6.6 1.2c.2-.4.5-.9.7-1.5l.8-1.7.7-1.6c.2-.5.3-.8.4-1 .1-.3.3-.5.4-.7.2-.2.4-.3.8-.3.3 0 .6.1.8.2.2.1.3.2.3.2-.1.3-.2.6-.4 1s-.4.9-.6 1.5l-.8 1.7-.8 1.7-.8 1.6-.6 1.2h-2l-1.6-3.2zM135.8 32.5c-.2.1-.5.2-.8.3-.3.1-.7.2-1.1.3-.4.1-.8.1-1.3.1-.7 0-1.3-.1-1.9-.3-.6-.2-1.1-.5-1.5-.9-.4-.4-.8-.9-1-1.5-.3-.6-.4-1.2-.4-2 0-.7.1-1.4.4-2 .2-.6.6-1.1 1-1.5.4-.4.9-.8 1.5-1 .6-.2 1.2-.3 1.9-.3.6 0 1.2.1 1.6.2s.9.4 1.2.6c.3.3.6.6.7.9.2.4.3.7.3 1.1 0 .4-.1.8-.2 1.1-.2.3-.4.6-.8.9-.4.2-.9.4-1.6.6-.7.1-1.5.2-2.5.2h-1.4c.1.6.4 1.1.9 1.5.5.4 1.2.6 2.1.6.3 0 .6 0 .9-.1.3 0 .5-.1.7-.2.2-.1.4-.1.5-.2l.3-.2.8 1.4c.1.2-.1.3-.3.4zm-5-4.5h.8c.7 0 1.2 0 1.6-.1.4-.1.7-.2.9-.3.2-.1.4-.3.4-.4.1-.2.1-.3.1-.5 0-.5-.2-.8-.5-1-.4-.2-.8-.3-1.4-.3-.4 0-.8.1-1.2.2-.3.2-.6.4-.8.6-.2.3-.4.6-.5.9-.1.3-.2.7-.2 1 .2-.1.5-.1.8-.1zM137.9 25.8c.2-.5.5-.9.9-1.2.4-.3.8-.6 1.4-.8.5-.2 1.1-.3 1.7-.3.6 0 1.2.1 1.8.3.5.2 1 .4 1.4.8.4.3.7.7.9 1.2.2.5.3 1 .3 1.6v5.4h-2V28c0-.8-.2-1.4-.6-1.9-.4-.4-1-.6-1.7-.6-.8 0-1.4.2-1.7.6-.4.4-.6 1-.6 1.9v4.9h-2v-5.4c-.1-.7 0-1.2.2-1.7zM147.8 21.5c.2-.1.5-.2.8-.2.2 0 .4 0 .6.1.2.1.3.1.4.1v2.3h2.6c.4 0 .7.1.8.2.2.2.2.4.2.7 0 .2 0 .4-.1.6-.1.2-.1.3-.1.4h-3.4v4c0 .3 0 .6.1.8.1.2.2.4.3.5.1.1.3.2.5.3.2 0 .4.1.6.1.3 0 .7-.1 1-.2.3-.1.5-.2.6-.3l.8 1.4c-.1.1-.2.2-.4.3l-.6.3c-.3.1-.5.2-.8.2-.3.1-.7.1-1 .1-1.1 0-1.8-.3-2.4-.8-.5-.5-.8-1.3-.8-2.1v-7.9c0-.5.1-.7.3-.9zM81.4 1.5c.2-.2.5-.2.8-.2.2 0 .4 0 .6.1.2.1.3.1.4.1v13h-2V2.2c0-.3.1-.6.2-.7zM92.2 1.5c.2-.2.5-.2.8-.2.2 0 .4 0 .6.1.2.1.3.1.4.1v8.1c0 .9-.1 1.6-.4 2.3-.2.6-.6 1.2-1 1.6-.4.4-.9.8-1.5 1-.6.2-1.2.3-1.9.3s-1.4-.1-1.9-.4c-.6-.2-1.1-.6-1.5-1-.4-.4-.8-.9-1-1.5-.2-.6-.4-1.2-.4-1.9s.1-1.3.3-1.9c.2-.6.6-1.1 1-1.5.4-.4.9-.8 1.5-1 .6-.2 1.2-.3 1.8-.3.7 0 1.3.1 1.8.4.5.3.9.6 1.2 1V2.2c-.1-.3 0-.6.2-.7zm-.5 7.3c-.1-.4-.3-.7-.6-.9-.2-.3-.5-.5-.9-.6-.3-.2-.6-.3-1-.3s-.8.1-1.1.2c-.3.1-.6.4-.9.6l-.6.9c-.1.4-.2.7-.2 1.2 0 .4.1.8.2 1.2.1.4.3.7.6.9.2.3.5.5.9.6.3.1.7.2 1.1.2.4 0 .8-.1 1.1-.2.3-.1.6-.3.9-.6l.6-.9c.1-.4.2-.8.2-1.2-.1-.3-.1-.7-.3-1.1zM101 12c.3.1.6.3 1 .4.4.1.8.3 1.3.3.5.1 1 .1 1.6.1 1 0 1.8-.2 2.2-.5.4-.3.7-.7.7-1.3 0-.3-.1-.5-.2-.7-.1-.2-.3-.4-.4-.5-.2-.1-.4-.2-.7-.3-.3-.1-.6-.2-1-.2l-2-.4c-.5-.1-1-.2-1.5-.4s-.9-.4-1.2-.7c-.4-.3-.6-.6-.9-1-.2-.4-.3-.9-.3-1.4 0-.5.1-1 .3-1.4.2-.5.5-.8.9-1.2.4-.3.9-.6 1.5-.8.6-.2 1.4-.3 2.3-.3.6 0 1.2 0 1.7.1s.9.2 1.2.3c.3.1.6.2.8.3.2.1.4.2.4.3.2.1.3.3.5.4.1.2.2.3.2.5 0 .3-.1.5-.3.8-.2.2-.3.4-.5.5-.1-.1-.3-.3-.5-.4-.2-.1-.5-.3-.9-.4-.3-.1-.7-.2-1.2-.3-.5-.1-1-.1-1.5-.1s-1 0-1.4.1c-.4.1-.7.2-.9.3-.2.1-.4.3-.5.5-.1.2-.1.4-.1.7 0 .5.2.8.5 1.1.4.3.9.5 1.8.6l2 .4c1.3.2 2.3.6 2.9 1.2.7.5 1 1.3 1 2.4 0 .6-.1 1.1-.3 1.6-.2.5-.6.9-1 1.2-.4.3-1 .6-1.6.8-.7.2-1.4.3-2.2.3-.7 0-1.4-.1-2-.2-.6-.1-1.1-.3-1.6-.4-.5-.2-.9-.3-1.2-.5-.3-.2-.5-.3-.7-.4l.9-1.7c.5 0 .7.2.9.3zM119.1 14.5c-.3 0-.6.1-.9.1-.3 0-.7.1-1.2.1h-1.3c-.9 0-1.7-.1-2.3-.2-.6-.2-1.1-.4-1.4-.6-.3-.3-.6-.6-.7-.9-.1-.4-.2-.7-.2-1.1 0-.5.1-.9.2-1.3s.4-.7.7-.9c.3-.3.8-.4 1.3-.6.5-.1 1.2-.2 2-.2h1.3c.4 0 .7.1.9.1 0-.4-.1-.8-.2-1-.1-.3-.3-.5-.6-.6-.1-.3-.4-.4-.7-.4-.3-.1-.7-.1-1.1-.1-.7 0-1.2.1-1.6.2-.4.2-.7.3-.8.4l-.3-.3c-.1-.2-.2-.4-.2-.6 0-.2 0-.3.1-.5s.2-.3.5-.4c.2-.1.5-.2.9-.3.4-.1.9-.1 1.5-.1.7 0 1.3.1 1.9.2.6.1 1.1.4 1.5.7.4.3.7.7 1 1.2.2.5.3 1.1.3 1.8v5.4c-.2-.2-.3-.1-.6-.1zm-2.1-4.2c-.3 0-.8-.1-1.5-.1-.8 0-1.4.1-1.8.4-.4.2-.6.6-.6 1.2 0 .2 0 .4.1.6.1.2.2.3.4.5.2.1.5.2.8.3.3.1.7.1 1.2.1s1 0 1.3-.1c.3 0 .5-.1.6-.1v-2.6c0-.1-.2-.1-.5-.2zM123 1.8c.2.2.4.5.4.9 0 .3-.1.6-.4.9s-.5.4-.9.4c-.3 0-.6-.1-.9-.4-.2-.2-.4-.5-.4-.9 0-.3.1-.6.4-.9.2-.2.5-.4.9-.4.3 0 .6.1.9.4zm-1.6 3.9c.2-.1.5-.2.8-.2.2 0 .4 0 .6.1.2.1.3.1.4.1v8.8h-2v-8c-.1-.4 0-.7.2-.8zM125.1 1.5c.2-.2.5-.2.8-.2.2 0 .4 0 .6.1.2.1.3.1.4.1v13h-2V2.2c-.1-.3 0-.6.2-.7zM130.4 1.8c.2.2.4.5.4.9 0 .3-.1.6-.4.9-.2.2-.5.4-.9.4-.3 0-.6-.1-.9-.4-.2-.2-.4-.5-.4-.9 0-.3.1-.6.4-.9.2-.2.5-.4.9-.4.3 0 .6.1.9.4zm-1.6 3.9c.2-.1.5-.2.8-.2.2 0 .4 0 .6.1.2.1.3.1.4.1v8.8h-2v-8c-.1-.4 0-.7.2-.8zM132.4 7.4c.2-.5.5-.9.9-1.2.4-.3.8-.6 1.4-.8.5-.2 1.1-.3 1.7-.3.6 0 1.2.1 1.8.3.5.2 1 .4 1.4.8.4.3.7.7.9 1.2.2.5.3 1 .3 1.6v5.4h-2V9.5c0-.8-.2-1.4-.6-1.9-.4-.4-1-.6-1.7-.6-.8 0-1.4.2-1.7.6-.4.4-.6 1-.6 1.9v4.9h-2V9c-.2-.6-.1-1.1.2-1.6zM143.7 16.1c.2.1.4.1.6.2.2.1.5.1.9.2.3 0 .7.1 1.1.1.4 0 .8 0 1.2-.1.4-.1.7-.3 1.1-.5.3-.2.6-.6.8-1 .2-.4.3-1 .3-1.6v-.2c-.3.3-.7.6-1.2.9-.5.3-1.1.4-1.9.4-.7 0-1.3-.1-1.8-.3-.6-.2-1-.5-1.5-.9-.4-.4-.7-.9-1-1.4-.2-.6-.3-1.2-.3-1.9s.1-1.3.4-1.9c.2-.6.6-1.1 1-1.5.4-.4.9-.7 1.6-1 .6-.2 1.3-.4 2-.4s1.3.1 1.9.3c.6.2 1.1.5 1.5.9.4.4.8 1 1 1.6.2.6.4 1.4.4 2.3v2.6c0 .9-.1 1.8-.4 2.4-.3.7-.6 1.2-1.1 1.7-.5.4-1 .7-1.6.9-.6.2-1.3.3-2.1.3-.5 0-.9 0-1.3-.1s-.8-.1-1.1-.2c-.3-.1-.6-.2-.8-.2-.2-.1-.4-.1-.4-.2l.6-1.5c-.2 0-.1.1.1.1zm4.2-3.5c.3-.1.6-.3.9-.6l.6-.9c.1-.3.2-.7.2-1.1 0-.4-.1-.8-.2-1.1-.1-.4-.3-.7-.6-.9-.2-.3-.5-.5-.9-.6-.3-.1-.7-.2-1.1-.2-.4 0-.8.1-1.1.2-.3.1-.6.4-.9.6s-.4.6-.6.9c-.1.3-.2.7-.2 1.1 0 .9.3 1.6.8 2.1s1.2.8 2 .8c.4-.1.7-.2 1.1-.3z"/>
</svg>
